# xmcd
#
# Track frame offsets:
#   150
#   11145
#   26776
#   39870
#   52011
#   61853
#   73527
#   84898
#   101777
#   119424
#   132451
#   141477
#   159882
#   171233
#   190564
#   207470
#   229003
#   242881
#   262028
#   276173
#   291088
#   305372
#   321884
#   331367
#
# Disc length: 4609 seconds
#
# Revision: 0
# Processed by: cddbd v1.5.2PL0 Copyright (c) Steve Scherf et al.
# Submitted via: uFREEDB ActiveX Control 1.5
#
DISCID=6311ff18
DTITLE=cd2 - cd2
DYEAR=1900
DGENRE=Alternative
TTITLE0=cd2
TTITLE1=cd2
TTITLE2=cd2
TTITLE3=cd2
TTITLE4=cd2
TTITLE5=cd2
TTITLE6=cd2
TTITLE7=cd2
TTITLE8=cd2
TTITLE9=cd2
TTITLE10=cd2
TTITLE11=cd2
TTITLE12=cd2
TTITLE13=cd2
TTITLE14=cd2
TTITLE15=cd2
TTITLE16=cd2
TTITLE17=cd2
TTITLE18=cd2
TTITLE19=cd2
TTITLE20=cd2
TTITLE21=cd2
TTITLE22=cd2
TTITLE23=cd2
EXTD=
EXTT0=
EXTT1=
EXTT2=
EXTT3=
EXTT4=
EXTT5=
EXTT6=
EXTT7=
EXTT8=
EXTT9=
EXTT10=
EXTT11=
EXTT12=
EXTT13=
EXTT14=
EXTT15=
EXTT16=
EXTT17=
EXTT18=
EXTT19=
EXTT20=
EXTT21=
EXTT22=
EXTT23=
PLAYORDER=
